name Walk1.mot
datacolumns 19
datarows 22
range 3.01500000 3.03600000
endheader

                time	   L_ground_force_vx	   L_ground_force_vy	   L_ground_force_vz	   L_ground_force_px	   L_ground_force_py	   L_ground_force_pz	   R_ground_force_vx	   R_ground_force_vy	   R_ground_force_vz	   R_ground_force_px	   R_ground_force_py	   R_ground_force_pz	   L_ground_torque_x	   L_ground_torque_y	   L_ground_torque_z	   R_ground_torque_x	   R_ground_torque_y	   R_ground_torque_z	
          3.01500000	          6.83819987	         40.40845492	         -6.13935171	         -0.00086115	          0.00000000	         -0.00241023	          0.00000000	          0.00000000	          0.00000000	          0.00000000	          0.00000000	          0.00000000	          0.00000000	          0.05696167	          0.00000000	          0.00000000	         -0.00000000	          0.00000000	
          3.01600000	          6.92772919	         45.11430378	         -6.82581897	         -0.01735641	          0.00000000	         -0.00607974	          0.00000000	          0.00000000	          0.00000000	          0.00000000	          0.00000000	          0.00000000	          0.00000000	          0.06160949	          0.00000000	          0.00000000	         -0.00000000	          0.00000000	
          3.01700000	          7.01465398	         49.95911574	         -7.51775088	         -0.03379594	          0.00000000	         -0.00974446	          0.00000000	          0.00000000	          0.00000000	          0.00000000	          0.00000000	          0.00000000	          0.00000000	          0.06645109	          0.00000000	          0.00000000	         -0.00000000	          0.00000000	
          3.01800000	          7.09805336	         54.93790194	         -8.21335196	         -0.05013114	          0.00000000	         -0.01339408	          0.00000000	          0.00000000	          0.00000000	          0.00000000	          0.00000000	          0.00000000	          0.00000000	          0.07148384	          0.00000000	          0.00000000	         -0.00000000	          0.00000000	
          3.01900000	          7.17689487	         60.04490207	         -8.91071254	         -0.06631328	          0.00000000	         -0.01701822	          0.00000000	          0.00000000	          0.00000000	          0.00000000	          0.00000000	          0.00000000	          0.00000000	          0.07670408	          0.00000000	          0.00000000	         -0.00000000	          0.00000000	
          3.02000000	          7.25002348	         65.27355214	         -9.60781259	         -0.08229469	          0.00000000	         -0.02060666	          0.00000000	          0.00000000	          0.00000000	          0.00000000	          0.00000000	          0.00000000	          0.00000000	          0.08210714	          0.00000000	          0.00000000	         -0.00000000	          0.00000000	
          3.02100000	          7.31614182	         70.61650374	        -10.30254030	         -0.09803073	          0.00000000	         -0.02414972	         -0.00000000	          0.00000000	          0.00000000	          0.00000000	          0.00000000	          0.00000000	          0.00000000	          0.08768727	          0.00000000	          0.00000000	         -0.00000000	          0.00000000	
          3.02200000	          7.37378830	         76.06568294	        -10.99271761	         -0.11348108	          0.00000000	         -0.02763851	         -0.00000000	          0.00000000	          0.00000000	          0.00000000	          0.00000000	          0.00000000	          0.00000000	          0.09343753	          0.00000000	          0.00000000	         -0.00000000	          0.00000000	
          3.02300000	          7.42131926	         81.61237480	        -11.67612535	         -0.12860979	          0.00000000	         -0.03106505	         -0.00000000	          0.00000000	          0.00000000	          0.00000000	          0.00000000	          0.00000000	          0.00000000	          0.09934953	          0.00000000	          0.00000000	         -0.00000000	          0.00000000	
          3.02400000	          7.45689602	         87.24733320	        -12.35052721	         -0.14338513	          0.00000000	         -0.03442220	         -0.00000000	          0.00000000	          0.00000000	          0.00000000	          0.00000000	          0.00000000	          0.00000000	          0.10541312	          0.00000000	          0.00000000	         -0.00000000	          0.00000000	
          3.02500000	          7.47847776	         92.96091577	        -13.01369243	         -0.15777927	          0.00000000	         -0.03770365	         -0.00000000	          0.00000000	          0.00000000	          0.00000000	          0.00000000	          0.00000000	          0.00000000	          0.11161614	          0.00000000	          0.00000000	         -0.00000000	          0.00000000	
          3.02600000	          7.48382092	         98.74323940	        -13.66341643	         -0.17176811	          0.00000000	         -0.04090391	         -0.00000000	          0.00000000	          0.00000000	          0.00000000	          0.00000000	          0.00000000	          0.00000000	          0.11794421	          0.00000000	          0.00000000	         -0.00000000	          0.00000000	
          3.02700000	          7.47048607	        104.58434996	        -14.29753877	         -0.18533102	          0.00000000	         -0.04401823	         -0.00000000	          0.00000000	          0.00000000	          0.00000000	          0.00000000	          0.00000000	          0.00000000	          0.12438065	          0.00000000	          0.00000000	         -0.00000000	          0.00000000	
          3.02800000	          7.43585266	        110.47439765	        -14.91395763	         -0.19845064	          0.00000000	         -0.04704260	         -0.00000000	          0.00000000	          0.00000000	          0.00000000	          0.00000000	          0.00000000	          0.00000000	          0.13090632	          0.00000000	          0.00000000	         -0.00000000	          0.00000000	
          3.02900000	          7.37714228	        116.40380802	        -15.51063987	         -0.21111267	          0.00000000	         -0.04997372	         -0.00000000	          0.00000000	          0.00000000	          0.00000000	          0.00000000	          0.00000000	          0.00000000	          0.13749945	          0.00000000	          0.00000000	         -0.00000000	          0.00000000	
          3.03000000	          7.29144959	        122.36343905	        -16.08562643	         -0.22330566	          0.00000000	         -0.05280893	         -0.00000000	          0.00000000	          0.00000000	          0.00000000	          0.00000000	          0.00000000	          0.00000000	          0.14413552	          0.00000000	          0.00000000	         -0.00000000	          0.00000000	
          3.03100000	          7.17577987	        128.34471669	        -16.63703337	         -0.23502084	          0.00000000	         -0.05554620	         -0.00000000	          0.00000000	          0.00000000	          0.00000000	          0.00000000	          0.00000000	          0.00000000	          0.15078701	          0.00000000	          0.00000000	          0.00000000	          0.00000000	
          3.03200000	          7.02709104	        134.33974363	        -17.16304967	         -0.24625189	          0.00000000	         -0.05818405	         -0.00000000	          0.00000000	          0.00000000	          0.00000000	          0.00000000	          0.00000000	          0.00000000	          0.15742330	          0.00000000	          0.00000000	          0.00000000	          0.00000000	
          3.03300000	          6.84233774	        140.34137888	        -17.66193318	         -0.25699480	          0.00000000	         -0.06072154	         -0.00000000	          0.00000000	          0.00000000	          0.00000000	          0.00000000	          0.00000000	          0.00000000	          0.16401068	          0.00000000	          0.00000000	          0.00000000	          0.00000000	
          3.03400000	          6.61851534	        146.34328792	        -18.13200606	         -0.26724766	          0.00000000	         -0.06315821	         -0.00000000	          0.00000000	          0.00000000	          0.00000000	          0.00000000	          0.00000000	          0.00000000	          0.17051248	          0.00000000	          0.00000000	          0.00000000	          0.00000000	
          3.03500000	          6.35270155	        152.33996512	        -18.57165076	         -0.27701050	          0.00000000	         -0.06549405	         -0.00000000	          0.00000000	          0.00000000	          0.00000000	          0.00000000	          0.00000000	          0.00000000	          0.17688926	          0.00000000	          0.00000000	          0.00000000	          0.00000000	
          3.03600000	          6.04209432	        158.32673045	        -18.97930713	         -0.28628512	          0.00000000	         -0.06772945	         -0.00000000	          0.00000000	          0.00000000	          0.00000000	          0.00000000	          0.00000000	          0.00000000	          0.18309915	          0.00000000	          0.00000000	          0.00000000	          0.00000000	
